<svg id="visual" viewBox="0 0 900 600" width="900" height="600" xmlns="http://www.w3.org/2000/svg" xmlns:xlink="http://www.w3.org/1999/xlink" version="1.1"><rect x="0" y="0" width="900" height="600" fill="#715DF2"></rect><g fill="#8490ff"><circle r="66" cx="64" cy="230"></circle><circle r="37" cx="9" cy="491"></circle><circle r="57" cx="567" cy="428"></circle><circle r="63" cx="843" cy="184"></circle><circle r="49" cx="545" cy="168"></circle><circle r="55" cx="696" cy="588"></circle><circle r="61" cx="385" cy="521"></circle><circle r="38" cx="393" cy="270"></circle><circle r="56" cx="394" cy="27"></circle><circle r="59" cx="868" cy="389"></circle><circle r="47" cx="830" cy="568"></circle><circle r="63" cx="128" cy="381"></circle><circle r="42" cx="184" cy="592"></circle><circle r="46" cx="163" cy="31"></circle><circle r="62" cx="861" cy="20"></circle><circle r="41" cx="723" cy="276"></circle><circle r="48" cx="668" cy="10"></circle><circle r="39" cx="723" cy="423"></circle><circle r="53" cx="18" cy="86"></circle><circle r="38" cx="263" cy="309"></circle><circle r="53" cx="294" cy="121"></circle><circle r="53" cx="518" cy="575"></circle><circle r="43" cx="265" cy="445"></circle></g></svg>