<svg id="visual" viewBox="0 0 900 600" width="900" height="600" xmlns="http://www.w3.org/2000/svg" xmlns:xlink="http://www.w3.org/1999/xlink" version="1.1"><rect x="0" y="0" width="900" height="600" fill="#001220"></rect><path d="M0 372L9.3 380C18.7 388 37.3 404 56.2 399.2C75 394.3 94 368.7 112.8 364C131.7 359.3 150.3 375.7 169 376.2C187.7 376.7 206.3 361.3 225 357.2C243.7 353 262.3 360 281.2 389.3C300 418.7 319 470.3 337.8 484.3C356.7 498.3 375.3 474.7 394 457.5C412.7 440.3 431.3 429.7 450 424.3C468.7 419 487.3 419 506.2 431.7C525 444.3 544 469.7 562.8 455.5C581.7 441.3 600.3 387.7 619 368.3C637.7 349 656.3 364 675 380.2C693.7 396.3 712.3 413.7 731.2 425.7C750 437.7 769 444.3 787.8 427.2C806.7 410 825.3 369 844 360.3C862.7 351.7 881.3 375.3 890.7 387.2L900 399L900 601L890.7 601C881.3 601 862.7 601 844 601C825.3 601 806.7 601 787.8 601C769 601 750 601 731.2 601C712.3 601 693.7 601 675 601C656.3 601 637.7 601 619 601C600.3 601 581.7 601 562.8 601C544 601 525 601 506.2 601C487.3 601 468.7 601 450 601C431.3 601 412.7 601 394 601C375.3 601 356.7 601 337.8 601C319 601 300 601 281.2 601C262.3 601 243.7 601 225 601C206.3 601 187.7 601 169 601C150.3 601 131.7 601 112.8 601C94 601 75 601 56.2 601C37.3 601 18.7 601 9.3 601L0 601Z" fill="#fa7268"></path><path d="M0 394L9.3 389.2C18.7 384.3 37.3 374.7 56.2 385.5C75 396.3 94 427.7 112.8 449C131.7 470.3 150.3 481.7 169 482C187.7 482.3 206.3 471.7 225 459.8C243.7 448 262.3 435 281.2 424C300 413 319 404 337.8 399C356.7 394 375.3 393 394 389.5C412.7 386 431.3 380 450 380.5C468.7 381 487.3 388 506.2 402.2C525 416.3 544 437.7 562.8 447.8C581.7 458 600.3 457 619 466.5C637.7 476 656.3 496 675 499.7C693.7 503.3 712.3 490.7 731.2 472.3C750 454 769 430 787.8 416.8C806.7 403.7 825.3 401.3 844 397.7C862.7 394 881.3 389 890.7 386.5L900 384L900 601L890.7 601C881.3 601 862.7 601 844 601C825.3 601 806.7 601 787.8 601C769 601 750 601 731.2 601C712.3 601 693.7 601 675 601C656.3 601 637.7 601 619 601C600.3 601 581.7 601 562.8 601C544 601 525 601 506.2 601C487.3 601 468.7 601 450 601C431.3 601 412.7 601 394 601C375.3 601 356.7 601 337.8 601C319 601 300 601 281.2 601C262.3 601 243.7 601 225 601C206.3 601 187.7 601 169 601C150.3 601 131.7 601 112.8 601C94 601 75 601 56.2 601C37.3 601 18.7 601 9.3 601L0 601Z" fill="#f66a67"></path><path d="M0 419L9.3 437C18.7 455 37.3 491 56.2 503.5C75 516 94 505 112.8 503C131.7 501 150.3 508 169 493.5C187.7 479 206.3 443 225 424.3C243.7 405.7 262.3 404.3 281.2 415.7C300 427 319 451 337.8 445.7C356.7 440.3 375.3 405.7 394 404.7C412.7 403.7 431.3 436.3 450 444.3C468.7 452.3 487.3 435.7 506.2 423C525 410.3 544 401.7 562.8 411.8C581.7 422 600.3 451 619 462.5C637.7 474 656.3 468 675 471.5C693.7 475 712.3 488 731.2 486C750 484 769 467 787.8 471.3C806.7 475.7 825.3 501.3 844 497.8C862.7 494.3 881.3 461.7 890.7 445.3L900 429L900 601L890.7 601C881.3 601 862.7 601 844 601C825.3 601 806.7 601 787.8 601C769 601 750 601 731.2 601C712.3 601 693.7 601 675 601C656.3 601 637.7 601 619 601C600.3 601 581.7 601 562.8 601C544 601 525 601 506.2 601C487.3 601 468.7 601 450 601C431.3 601 412.7 601 394 601C375.3 601 356.7 601 337.8 601C319 601 300 601 281.2 601C262.3 601 243.7 601 225 601C206.3 601 187.7 601 169 601C150.3 601 131.7 601 112.8 601C94 601 75 601 56.2 601C37.3 601 18.7 601 9.3 601L0 601Z" fill="#f16367"></path><path d="M0 466L9.3 454.8C18.7 443.7 37.3 421.3 56.2 411.2C75 401 94 403 112.8 417.2C131.7 431.3 150.3 457.7 169 475.8C187.7 494 206.3 504 225 511.3C243.7 518.7 262.3 523.3 281.2 518.2C300 513 319 498 337.8 482.5C356.7 467 375.3 451 394 458.2C412.7 465.3 431.3 495.7 450 491.8C468.7 488 487.3 450 506.2 444.3C525 438.7 544 465.3 562.8 484C581.7 502.7 600.3 513.3 619 507C637.7 500.7 656.3 477.3 675 464.7C693.7 452 712.3 450 731.2 443.8C750 437.7 769 427.3 787.8 434.5C806.7 441.7 825.3 466.3 844 485C862.7 503.7 881.3 516.3 890.7 522.7L900 529L900 601L890.7 601C881.3 601 862.7 601 844 601C825.3 601 806.7 601 787.8 601C769 601 750 601 731.2 601C712.3 601 693.7 601 675 601C656.3 601 637.7 601 619 601C600.3 601 581.7 601 562.8 601C544 601 525 601 506.2 601C487.3 601 468.7 601 450 601C431.3 601 412.7 601 394 601C375.3 601 356.7 601 337.8 601C319 601 300 601 281.2 601C262.3 601 243.7 601 225 601C206.3 601 187.7 601 169 601C150.3 601 131.7 601 112.8 601C94 601 75 601 56.2 601C37.3 601 18.7 601 9.3 601L0 601Z" fill="#ed5b67"></path><path d="M0 447L9.3 444.5C18.7 442 37.3 437 56.2 439.5C75 442 94 452 112.8 459C131.7 466 150.3 470 169 477.7C187.7 485.3 206.3 496.7 225 505.3C243.7 514 262.3 520 281.2 513C300 506 319 486 337.8 471.2C356.7 456.3 375.3 446.7 394 452.7C412.7 458.7 431.3 480.3 450 483C468.7 485.7 487.3 469.3 506.2 455.7C525 442 544 431 562.8 446C581.7 461 600.3 502 619 518.8C637.7 535.7 656.3 528.3 675 511.5C693.7 494.7 712.3 468.3 731.2 458.3C750 448.3 769 454.7 787.8 472C806.7 489.3 825.3 517.7 844 528.7C862.7 539.7 881.3 533.3 890.7 530.2L900 527L900 601L890.7 601C881.3 601 862.7 601 844 601C825.3 601 806.7 601 787.8 601C769 601 750 601 731.2 601C712.3 601 693.7 601 675 601C656.3 601 637.7 601 619 601C600.3 601 581.7 601 562.8 601C544 601 525 601 506.2 601C487.3 601 468.7 601 450 601C431.3 601 412.7 601 394 601C375.3 601 356.7 601 337.8 601C319 601 300 601 281.2 601C262.3 601 243.7 601 225 601C206.3 601 187.7 601 169 601C150.3 601 131.7 601 112.8 601C94 601 75 601 56.2 601C37.3 601 18.7 601 9.3 601L0 601Z" fill="#e85467"></path><path d="M0 527L9.3 528.2C18.7 529.3 37.3 531.7 56.2 531.2C75 530.7 94 527.3 112.8 518.3C131.7 509.3 150.3 494.7 169 491.7C187.7 488.7 206.3 497.3 225 508.5C243.7 519.7 262.3 533.3 281.2 524.8C300 516.3 319 485.7 337.8 477.7C356.7 469.7 375.3 484.3 394 483.8C412.7 483.3 431.3 467.7 450 462C468.7 456.3 487.3 460.7 506.2 460C525 459.3 544 453.7 562.8 449.7C581.7 445.7 600.3 443.3 619 460.5C637.7 477.7 656.3 514.3 675 524.7C693.7 535 712.3 519 731.2 506.3C750 493.7 769 484.3 787.8 487.5C806.7 490.7 825.3 506.3 844 504C862.7 501.7 881.3 481.3 890.7 471.2L900 461L900 601L890.7 601C881.3 601 862.7 601 844 601C825.3 601 806.7 601 787.8 601C769 601 750 601 731.2 601C712.3 601 693.7 601 675 601C656.3 601 637.7 601 619 601C600.3 601 581.7 601 562.8 601C544 601 525 601 506.2 601C487.3 601 468.7 601 450 601C431.3 601 412.7 601 394 601C375.3 601 356.7 601 337.8 601C319 601 300 601 281.2 601C262.3 601 243.7 601 225 601C206.3 601 187.7 601 169 601C150.3 601 131.7 601 112.8 601C94 601 75 601 56.2 601C37.3 601 18.7 601 9.3 601L0 601Z" fill="#e34c67"></path><path d="M0 527L9.3 520.7C18.7 514.3 37.3 501.7 56.2 507C75 512.3 94 535.7 112.8 538.2C131.7 540.7 150.3 522.3 169 515.8C187.7 509.3 206.3 514.7 225 516.7C243.7 518.7 262.3 517.3 281.2 508.7C300 500 319 484 337.8 486C356.7 488 375.3 508 394 522.8C412.7 537.7 431.3 547.3 450 537.2C468.7 527 487.3 497 506.2 482.8C525 468.7 544 470.3 562.8 478.2C581.7 486 600.3 500 619 505.5C637.7 511 656.3 508 675 500.7C693.7 493.3 712.3 481.7 731.2 487.7C750 493.7 769 517.3 787.8 523.3C806.7 529.3 825.3 517.7 844 517.5C862.7 517.3 881.3 528.7 890.7 534.3L900 540L900 601L890.7 601C881.3 601 862.7 601 844 601C825.3 601 806.7 601 787.8 601C769 601 750 601 731.2 601C712.3 601 693.7 601 675 601C656.3 601 637.7 601 619 601C600.3 601 581.7 601 562.8 601C544 601 525 601 506.2 601C487.3 601 468.7 601 450 601C431.3 601 412.7 601 394 601C375.3 601 356.7 601 337.8 601C319 601 300 601 281.2 601C262.3 601 243.7 601 225 601C206.3 601 187.7 601 169 601C150.3 601 131.7 601 112.8 601C94 601 75 601 56.2 601C37.3 601 18.7 601 9.3 601L0 601Z" fill="#de4467"></path><path d="M0 556L9.3 549.8C18.7 543.7 37.3 531.3 56.2 528.2C75 525 94 531 112.8 538.2C131.7 545.3 150.3 553.7 169 559.2C187.7 564.7 206.3 567.3 225 559.3C243.7 551.3 262.3 532.7 281.2 519.3C300 506 319 498 337.8 493.8C356.7 489.7 375.3 489.3 394 491C412.7 492.7 431.3 496.3 450 501C468.7 505.7 487.3 511.3 506.2 520.8C525 530.3 544 543.7 562.8 542.7C581.7 541.7 600.3 526.3 619 518.3C637.7 510.3 656.3 509.7 675 509.5C693.7 509.3 712.3 509.7 731.2 514.8C750 520 769 530 787.8 527.2C806.7 524.3 825.3 508.7 844 500.7C862.7 492.7 881.3 492.3 890.7 492.2L900 492L900 601L890.7 601C881.3 601 862.7 601 844 601C825.3 601 806.7 601 787.8 601C769 601 750 601 731.2 601C712.3 601 693.7 601 675 601C656.3 601 637.7 601 619 601C600.3 601 581.7 601 562.8 601C544 601 525 601 506.2 601C487.3 601 468.7 601 450 601C431.3 601 412.7 601 394 601C375.3 601 356.7 601 337.8 601C319 601 300 601 281.2 601C262.3 601 243.7 601 225 601C206.3 601 187.7 601 169 601C150.3 601 131.7 601 112.8 601C94 601 75 601 56.2 601C37.3 601 18.7 601 9.3 601L0 601Z" fill="#d83c67"></path><path d="M0 547L9.3 542.8C18.7 538.7 37.3 530.3 56.2 533.2C75 536 94 550 112.8 548.2C131.7 546.3 150.3 528.7 169 519.3C187.7 510 206.3 509 225 519C243.7 529 262.3 550 281.2 561.3C300 572.7 319 574.3 337.8 564.2C356.7 554 375.3 532 394 525C412.7 518 431.3 526 450 528.7C468.7 531.3 487.3 528.7 506.2 527.3C525 526 544 526 562.8 528.5C581.7 531 600.3 536 619 543.5C637.7 551 656.3 561 675 564C693.7 567 712.3 563 731.2 557.2C750 551.3 769 543.7 787.8 546.7C806.7 549.7 825.3 563.3 844 564.3C862.7 565.3 881.3 553.7 890.7 547.8L900 542L900 601L890.7 601C881.3 601 862.7 601 844 601C825.3 601 806.7 601 787.8 601C769 601 750 601 731.2 601C712.3 601 693.7 601 675 601C656.3 601 637.7 601 619 601C600.3 601 581.7 601 562.8 601C544 601 525 601 506.2 601C487.3 601 468.7 601 450 601C431.3 601 412.7 601 394 601C375.3 601 356.7 601 337.8 601C319 601 300 601 281.2 601C262.3 601 243.7 601 225 601C206.3 601 187.7 601 169 601C150.3 601 131.7 601 112.8 601C94 601 75 601 56.2 601C37.3 601 18.7 601 9.3 601L0 601Z" fill="#d23467"></path><path d="M0 543L9.3 541.2C18.7 539.3 37.3 535.7 56.2 543C75 550.3 94 568.7 112.8 573.2C131.7 577.7 150.3 568.3 169 562.2C187.7 556 206.3 553 225 554.2C243.7 555.3 262.3 560.7 281.2 566C300 571.3 319 576.7 337.8 573C356.7 569.3 375.3 556.7 394 552.8C412.7 549 431.3 554 450 552.8C468.7 551.7 487.3 544.3 506.2 546.2C525 548 544 559 562.8 565.3C581.7 571.7 600.3 573.3 619 573C637.7 572.7 656.3 570.3 675 570.5C693.7 570.7 712.3 573.3 731.2 576C750 578.7 769 581.3 787.8 580.3C806.7 579.3 825.3 574.7 844 571C862.7 567.3 881.3 564.7 890.7 563.3L900 562L900 601L890.7 601C881.3 601 862.7 601 844 601C825.3 601 806.7 601 787.8 601C769 601 750 601 731.2 601C712.3 601 693.7 601 675 601C656.3 601 637.7 601 619 601C600.3 601 581.7 601 562.8 601C544 601 525 601 506.2 601C487.3 601 468.7 601 450 601C431.3 601 412.7 601 394 601C375.3 601 356.7 601 337.8 601C319 601 300 601 281.2 601C262.3 601 243.7 601 225 601C206.3 601 187.7 601 169 601C150.3 601 131.7 601 112.8 601C94 601 75 601 56.2 601C37.3 601 18.7 601 9.3 601L0 601Z" fill="#cc2c68"></path><path d="M0 568L9.3 568C18.7 568 37.3 568 56.2 569.3C75 570.7 94 573.3 112.8 574.5C131.7 575.7 150.3 575.3 169 577C187.7 578.7 206.3 582.3 225 583.5C243.7 584.7 262.3 583.3 281.2 580.2C300 577 319 572 337.8 570.2C356.7 568.3 375.3 569.7 394 571.7C412.7 573.7 431.3 576.3 450 573.7C468.7 571 487.3 563 506.2 564.5C525 566 544 577 562.8 579.8C581.7 582.7 600.3 577.3 619 573.3C637.7 569.3 656.3 566.7 675 564.5C693.7 562.3 712.3 560.7 731.2 560.7C750 560.7 769 562.3 787.8 567.3C806.7 572.3 825.3 580.7 844 579.8C862.7 579 881.3 569 890.7 564L900 559L900 601L890.7 601C881.3 601 862.7 601 844 601C825.3 601 806.7 601 787.8 601C769 601 750 601 731.2 601C712.3 601 693.7 601 675 601C656.3 601 637.7 601 619 601C600.3 601 581.7 601 562.8 601C544 601 525 601 506.2 601C487.3 601 468.7 601 450 601C431.3 601 412.7 601 394 601C375.3 601 356.7 601 337.8 601C319 601 300 601 281.2 601C262.3 601 243.7 601 225 601C206.3 601 187.7 601 169 601C150.3 601 131.7 601 112.8 601C94 601 75 601 56.2 601C37.3 601 18.7 601 9.3 601L0 601Z" fill="#c62368"></path></svg>